# xmcd CD database file
#
# Track frame offsets:
#	150
#	17787
#	32562
#	45077
#	60605
#	83705
#	96036
#	114201
#	133018
#	147338
#	161933
#	183031
#	202528
#
# Disc length: 2883 seconds
#
# Revision: 2
# Processed by: cddbd v1.5PL3 Copyright (c) Steve Scherf et al.
# Submitted via: Feurio! 1.67 - http://www.feurio.com
#
DISCID=980b410d
DTITLE=Various Artist - Lost Highway - Lost and Found Volume 1
DYEAR=2003
DGENRE=
TTITLE0=Ryan Adams - Ryan Adams - Rosalie Come And Go
TTITLE1=Marc Broussard - Marc Broussard - Just Like That
TTITLE2=Lucinda Williams - Lucinda Williams - Buick Blues
TTITLE3=The Jayhawks - The Jayhawks - Fools On Parade
TTITLE4=Tift Merritt - Tift Merritt - Trouble Over Me
TTITLE5=Willie Nelson and Ray Price - Willie Nelson and Ray Price - Run That By Me 
TTITLE5=One More Time
TTITLE6=The Jayhawks - The Jayhawks - Falling Star
TTITLE7=Bright Eyes - Bright Eyes - Trees Get Wheeled Away
TTITLE8=Whiskeytown - Whiskeytown - Choked Up
TTITLE9=Willie Nelson - Willie Nelson - I Didn't Come Here (And I Ain't 
TTITLE9=Leavin')
TTITLE10=Lucinda Williams - Lucinda Williams - Righteously
TTITLE11=Unamerican - Unamerican - Sometimes
TTITLE12=Johnny Cash - Johnny Cash - Wichita Lineman
EXTD=986 111-5
EXTT0=
EXTT1=
EXTT2=
EXTT3=
EXTT4=
EXTT5=
EXTT6=
EXTT7=
EXTT8=
EXTT9=
EXTT10=
EXTT11=
EXTT12=
PLAYORDER=
